<svg width="198" height="48" viewBox="0 0 198 48" fill="none" xmlns="http://www.w3.org/2000/svg">
<g clip-path="url(#clip0_2898_42785)">
<path fill-rule="evenodd" clip-rule="evenodd" d="M1.07172 35.25L1.00391 35.3055L1.04459 35.2639L1.07172 35.25Z" fill="#080505"/>
<path fill-rule="evenodd" clip-rule="evenodd" d="M1.41167 35.0142L1.35742 35.0419L1.37098 35.028L1.41167 35.0142Z" fill="#080505"/>
<path fill-rule="evenodd" clip-rule="evenodd" d="M1.73688 34.8337L1.70898 34.848L1.73688 34.8337Z" fill="#080505"/>
<path fill-rule="evenodd" clip-rule="evenodd" d="M1.35707 35.0417L1.07227 35.2498C1.15364 35.1805 1.24857 35.1111 1.35707 35.0417Z" fill="#080505"/>
<path fill-rule="evenodd" clip-rule="evenodd" d="M1.71047 34.8477L1.41211 35.0141L1.53417 34.9448L1.71047 34.8477Z" fill="#080505"/>
<path fill-rule="evenodd" clip-rule="evenodd" d="M11.9892 37.2336H3.24173C2.60432 37.2475 2.60432 37.6914 3.24173 37.7053H5.04546L11.9892 37.2336ZM11.9892 37.2336L5.04546 37.7053H35.0715V37.2336H11.9892Z" fill="#080505"/>
<path d="M53.4618 29.1183C52.2005 29.1183 50.9935 28.9241 49.8136 28.5218C48.6473 28.1195 47.7251 27.6062 47.0605 26.9681L47.9421 25.0676C48.5795 25.6502 49.3932 26.1358 50.3968 26.4964C51.3868 26.8571 52.4175 27.0513 53.4618 27.0513C54.8451 27.0513 55.8758 26.8155 56.5674 26.33C57.2455 25.8445 57.5981 25.2063 57.5981 24.4156C57.5981 23.833 57.4083 23.3475 57.0421 22.9868C56.6624 22.6261 56.2013 22.3348 55.6588 22.1406C55.1163 21.9464 54.3297 21.7244 53.3261 21.4747C52.0649 21.1695 51.0477 20.8505 50.2747 20.5453C49.5017 20.2401 48.8372 19.7546 48.2947 19.1164C47.7522 18.4783 47.4674 17.6044 47.4674 16.5085C47.4674 15.5929 47.698 14.7744 48.1726 14.0392C48.6473 13.304 49.3525 12.7213 50.3154 12.2774C51.2647 11.8335 52.4582 11.6116 53.8686 11.6116C54.8586 11.6116 55.8215 11.7364 56.7844 12C57.7338 12.2636 58.561 12.6381 59.2391 13.1236L58.4525 15.0796C57.7473 14.6218 57.0014 14.275 56.2013 14.0392C55.4011 13.8034 54.6281 13.6785 53.8551 13.6785C52.4989 13.6785 51.4817 13.9282 50.8036 14.4415C50.1255 14.9409 49.7865 15.5929 49.7865 16.3975C49.7865 16.9801 49.9764 17.4656 50.3561 17.8263C50.7358 18.187 51.2105 18.4783 51.7801 18.6864C52.3497 18.8945 53.1092 19.1026 54.0856 19.3384C55.3469 19.6436 56.3504 19.9626 57.1235 20.2678C57.8829 20.573 58.5475 21.0447 59.0899 21.6828C59.6324 22.3209 59.9172 23.1671 59.9172 24.2491C59.9172 25.1508 59.6731 25.9693 59.1984 26.7045C58.7238 27.4398 57.9914 28.0363 57.0285 28.4663C56.0792 28.8963 54.8858 29.1183 53.4618 29.1183Z" fill="#080505"/>
<path d="M68.61 29.0629C67.3216 29.0629 66.1688 28.7716 65.1652 28.2029C64.1617 27.6341 63.3615 26.8434 62.7919 25.8446C62.2223 24.8458 61.9375 23.7083 61.9375 22.432C61.9375 21.1558 62.2223 20.0321 62.7919 19.0195C63.3615 18.0207 64.1617 17.23 65.1652 16.6751C66.1824 16.1063 67.3216 15.8289 68.61 15.8289C69.7627 15.8289 70.7799 16.0647 71.6749 16.5363C72.57 17.008 73.2752 17.6877 73.7635 18.5894L72.014 19.7408C71.6207 19.1166 71.1189 18.6588 70.5357 18.3536C69.9526 18.0484 69.288 17.8819 68.5828 17.8819C67.7556 17.8819 67.0096 18.0762 66.3451 18.4368C65.6806 18.8114 65.1652 19.3524 64.7991 20.0321C64.4193 20.7257 64.243 21.5165 64.243 22.4182C64.243 23.3337 64.4329 24.1383 64.7991 24.8319C65.1788 25.5255 65.6941 26.0527 66.3451 26.4272C67.0096 26.8018 67.7556 26.9821 68.5828 26.9821C69.3016 26.9821 69.9526 26.8295 70.5357 26.5243C71.1189 26.2191 71.6207 25.7475 72.014 25.1371L73.7635 26.2608C73.2752 27.1624 72.57 27.8422 71.6749 28.3277C70.7799 28.8271 69.7492 29.0629 68.61 29.0629Z" fill="#080505"/>
<path d="M83.203 15.8566C84.8169 15.8566 86.0917 16.3282 87.0411 17.2854C87.9904 18.2426 88.4651 19.6298 88.4651 21.4748V28.9242H86.1731V21.7384C86.1731 20.4899 85.8747 19.5466 85.2916 18.9084C84.6949 18.2703 83.854 17.9513 82.7555 17.9513C81.5078 17.9513 80.5313 18.3258 79.8126 19.061C79.0938 19.7963 78.7412 20.8644 78.7412 22.2516V28.9242H76.4492V10.7932H78.7412V17.7987C79.2158 17.1744 79.8397 16.7028 80.6127 16.356C81.3857 16.023 82.2401 15.8566 83.203 15.8566Z" fill="#080505"/>
<path d="M98.2553 29.0629C96.994 29.0629 95.8684 28.7716 94.8648 28.2029C93.8612 27.6341 93.0746 26.8434 92.5186 25.8446C91.949 24.8458 91.6777 23.7083 91.6777 22.432C91.6777 21.1558 91.9625 20.0321 92.5186 19.0195C93.0882 18.0207 93.8748 17.23 94.8648 16.6751C95.8684 16.1063 96.994 15.8289 98.2553 15.8289C99.5165 15.8289 100.642 16.1063 101.632 16.6751C102.622 17.2438 103.409 18.0207 103.965 19.0195C104.534 20.0183 104.819 21.1558 104.819 22.432C104.819 23.7083 104.534 24.8458 103.965 25.8446C103.395 26.8434 102.622 27.6341 101.632 28.2029C100.642 28.7855 99.5029 29.0629 98.2553 29.0629ZM98.2553 27.0098C99.069 27.0098 99.8013 26.8156 100.439 26.4411C101.076 26.0527 101.591 25.5255 101.958 24.8319C102.324 24.1383 102.5 23.3476 102.5 22.4459C102.5 21.5442 102.31 20.7535 101.958 20.0599C101.591 19.3663 101.09 18.8391 100.439 18.4646C99.7877 18.09 99.069 17.9097 98.2553 17.9097C97.4415 17.9097 96.7228 18.1039 96.0718 18.4646C95.4344 18.8391 94.919 19.3801 94.5393 20.0599C94.1596 20.7535 93.9833 21.5442 93.9833 22.4459C93.9833 23.3476 94.1731 24.1383 94.5393 24.8319C94.919 25.5255 95.4208 26.0665 96.0718 26.4411C96.7092 26.8295 97.4415 27.0098 98.2553 27.0098Z" fill="#080505"/>
<path d="M107.994 10.7932H110.286V28.9242H107.994V10.7932Z" fill="#080505"/>
<path d="M119.277 15.8564C121.026 15.8564 122.369 16.3004 123.305 17.1743C124.241 18.0483 124.702 19.3661 124.702 21.1001V28.9241H122.532V27.2178C122.152 27.8143 121.61 28.2859 120.891 28.5911C120.186 28.9102 119.345 29.0628 118.368 29.0628C116.958 29.0628 115.819 28.716 114.964 28.0085C114.11 27.3149 113.689 26.3854 113.689 25.2479C113.689 24.1104 114.096 23.1948 114.91 22.5012C115.724 21.8076 117.012 21.4608 118.775 21.4608H122.41V20.9892C122.41 19.9765 122.125 19.1996 121.555 18.6725C120.986 18.1315 120.145 17.8679 119.019 17.8679C118.273 17.8679 117.541 17.9928 116.822 18.2425C116.103 18.4922 115.507 18.8251 115.005 19.2551L114.056 17.4934C114.707 16.9523 115.493 16.5501 116.402 16.2587C117.283 15.9952 118.246 15.8564 119.277 15.8564ZM118.748 27.2594C119.63 27.2594 120.375 27.0652 121.013 26.6629C121.65 26.2606 122.111 25.6918 122.396 24.9705V23.1671H118.857C116.917 23.1671 115.941 23.833 115.941 25.1647C115.941 25.8167 116.185 26.33 116.687 26.7045C117.188 27.0652 117.867 27.2594 118.748 27.2594Z" fill="#080505"/>
<path d="M131.144 18.1454C131.538 17.3963 132.134 16.8275 132.907 16.4391C133.68 16.0507 134.63 15.8564 135.755 15.8564V18.1315C135.633 18.1176 135.457 18.1037 135.226 18.1037C133.979 18.1037 133.002 18.4783 132.297 19.2413C131.592 20.0042 131.239 21.0724 131.239 22.4735V28.9241H128.947V15.9813H131.144V18.1454Z" fill="#080505"/>
<path d="M138.576 11.8198H140.963V26.8018H150.022V28.9242H138.576V11.8198Z" fill="#080505"/>
<path d="M163.583 22.5153C163.583 22.6956 163.57 22.9314 163.529 23.2227H153.263C153.412 24.3603 153.9 25.2758 154.727 25.9694C155.555 26.663 156.599 27.0098 157.846 27.0098C159.365 27.0098 160.572 26.4827 161.495 25.4423L162.756 26.9544C162.186 27.6341 161.467 28.1612 160.613 28.5219C159.759 28.8826 158.809 29.0629 157.752 29.0629C156.409 29.0629 155.229 28.7855 154.198 28.2167C153.168 27.6618 152.367 26.8711 151.798 25.8585C151.228 24.8458 150.957 23.7083 150.957 22.432C150.957 21.1835 151.228 20.046 151.784 19.0333C152.327 18.0207 153.086 17.2438 154.049 16.6751C155.012 16.1063 156.097 15.8289 157.304 15.8289C158.511 15.8289 159.596 16.1063 160.545 16.6751C161.495 17.2438 162.227 18.0207 162.769 19.0333C163.312 20.0599 163.583 21.2113 163.583 22.5153ZM157.331 17.8265C156.233 17.8265 155.31 18.1733 154.578 18.853C153.846 19.5327 153.398 20.4344 153.276 21.5442H161.386C161.264 20.4483 160.83 19.5605 160.084 18.8669C159.352 18.1733 158.43 17.8265 157.331 17.8265Z" fill="#080505"/>
<path d="M170.759 15.8564C172.509 15.8564 173.851 16.3004 174.787 17.1743C175.723 18.0483 176.184 19.3661 176.184 21.1001V28.9241H174.014V27.2178C173.634 27.8143 173.092 28.2859 172.373 28.5911C171.668 28.9102 170.827 29.0628 169.851 29.0628C168.427 29.0628 167.301 28.716 166.447 28.0085C165.592 27.3149 165.172 26.3854 165.172 25.2479C165.172 24.1104 165.579 23.1948 166.392 22.5012C167.206 21.8076 168.495 21.4608 170.258 21.4608H173.892V20.9892C173.892 19.9765 173.607 19.1996 173.038 18.6725C172.468 18.1315 171.614 17.8679 170.502 17.8679C169.756 17.8679 169.023 17.9928 168.305 18.2425C167.586 18.4922 166.989 18.8251 166.487 19.2551L165.524 17.4934C166.175 16.9523 166.962 16.5501 167.871 16.2587C168.779 15.9952 169.742 15.8564 170.759 15.8564ZM170.23 27.2594C171.112 27.2594 171.858 27.0652 172.495 26.6629C173.133 26.2606 173.594 25.6918 173.879 24.9705V23.1671H170.339C168.4 23.1671 167.423 23.833 167.423 25.1647C167.423 25.8167 167.667 26.33 168.169 26.7045C168.671 27.0791 169.362 27.2594 170.23 27.2594Z" fill="#080505"/>
<path d="M192.497 10.7932V28.9242H190.3V26.8711C189.785 27.5924 189.147 28.1335 188.361 28.508C187.574 28.8826 186.72 29.0629 185.784 29.0629C184.563 29.0629 183.465 28.7855 182.488 28.2306C181.512 27.6757 180.753 26.8988 180.21 25.9C179.668 24.9012 179.383 23.7498 179.383 22.4459C179.383 21.1419 179.654 19.9905 180.21 19.0056C180.753 18.0068 181.526 17.2438 182.488 16.6889C183.465 16.134 184.563 15.8566 185.784 15.8566C186.693 15.8566 187.534 16.0369 188.293 16.3837C189.052 16.7305 189.69 17.2438 190.205 17.9374V10.7932H192.497ZM185.974 27.0098C186.774 27.0098 187.493 26.8156 188.144 26.4411C188.795 26.0526 189.31 25.5255 189.676 24.8319C190.042 24.1383 190.219 23.3476 190.219 22.4459C190.219 21.5442 190.029 20.7535 189.676 20.0598C189.31 19.3662 188.795 18.8391 188.144 18.4645C187.493 18.09 186.76 17.9097 185.974 17.9097C185.16 17.9097 184.428 18.1039 183.79 18.4645C183.139 18.8391 182.638 19.3801 182.258 20.0598C181.878 20.7535 181.702 21.5442 181.702 22.4459C181.702 23.3476 181.892 24.1383 182.258 24.8319C182.638 25.5255 183.139 26.0665 183.79 26.4411C184.428 26.8295 185.16 27.0098 185.974 27.0098Z" fill="#080505"/>
<path fill-rule="evenodd" clip-rule="evenodd" d="M11.4602 39.4671V40.3272H36.0208C36.8888 40.3272 36.8888 39.4671 36.0208 39.4671H11.4602ZM4.05544 40.341V39.4809H2.84843C2.33308 39.4809 1.83129 39.2729 1.46512 38.8983C1.09895 38.5238 0.89552 38.0105 0.89552 37.4834C0.89552 36.3736 1.77704 35.4858 2.84843 35.4858H36.0208C36.8617 35.4858 36.8617 34.6257 36.8617 34.6257C36.8752 27.5509 36.9024 8.00493 36.8617 0.930104C36.8617 0.458449 36.4819 0.0700274 36.0208 0.0700274C24.9814 0.0284108 13.9421 -0.0132058 2.91624 0.0700274C1.38375 0.0561552 0.0546823 1.41563 0.0411204 2.98319C-0.040251 14.4832 0.000434725 25.9694 0.0411204 37.4695C0.0411204 39.0509 1.28882 40.341 2.84843 40.341H4.05544ZM35.3699 34.5979C35.7225 34.5979 36.0208 34.3066 36.0208 33.9321C36.0208 29.6317 36.0344 5.88248 36.0344 1.59597C36.0344 1.20755 35.736 0.902359 35.3563 0.902359C24.5475 0.874615 13.7386 0.846871 2.91624 0.902359C1.83129 0.902359 0.89552 1.87341 0.89552 2.96932C0.841272 13.7758 0.868396 24.5961 0.89552 35.4025C1.39731 34.9031 2.08897 34.5841 2.84843 34.5841C2.84843 34.5979 30.7181 34.5979 35.3699 34.5979Z" fill="#080505"/>
<path fill-rule="evenodd" clip-rule="evenodd" d="M10.3083 37.7053H5.20898V46.6668L7.79931 45.446L10.3083 46.6668V37.7053Z" fill="#0E8289"/>
<path fill-rule="evenodd" clip-rule="evenodd" d="M2.22349 34.6673C2.06074 34.7089 1.898 34.7506 1.74882 34.8199L1.7217 34.8338C1.40977 34.9725 1.12497 35.1667 0.880859 35.4164V2.98322C0.880859 1.83183 1.78951 0.91626 2.90158 0.91626C9.65541 0.91626 31.2324 0.91626 35.3281 0.91626C35.5044 0.91626 35.6807 0.985621 35.8027 1.11047C35.9248 1.23532 36.0062 1.41566 36.0062 1.596C36.0062 5.95187 36.0062 29.5485 36.0062 33.9044C36.0062 34.0847 35.9384 34.265 35.8027 34.3899C35.6807 34.5147 35.5044 34.598 35.3281 34.598H3.85092V11.0013H2.22349V34.6673ZM13.629 27.7867C13.629 27.7867 10.9845 23.1118 15.2972 20.5732C24.6413 15.052 23.2716 15.8566 23.2716 15.8566C23.2716 15.8566 25.9161 20.5315 21.6034 23.0702C12.2593 28.6052 13.629 27.7867 13.629 27.7867ZM14.1851 19.0888C14.1851 19.0888 11.8524 14.9549 15.6633 12.6938C23.9361 7.81074 22.7155 8.5321 22.7155 8.5321C22.7155 8.5321 25.0482 12.666 21.2373 14.9272C12.9645 19.7963 14.1851 19.0888 14.1851 19.0888ZM2.22349 9.33669H3.85092V2.28961C3.41693 2.28961 3.01008 2.46995 2.69815 2.77513C2.38623 3.08032 2.22349 3.51036 2.22349 3.95427V9.33669Z" fill="#0E8289"/>
</g>
<defs>
<clipPath id="clip0_2898_42785">
<rect width="198" height="48" fill="white"/>
</clipPath>
</defs>
</svg>
